HIERARCHY
ROOT SpineBase
{
  OFFSET 0.000000 0.000000 0.000000
  CHANNELS 6 Xposition Yposition Zposition Zrotation Xrotation Yrotation
  JOINT SpineMid
  {
    OFFSET 0.000000 33.475530 0.000000
    CHANNELS 3 Zrotation Xrotation Yrotation
    JOINT SpineShoulder
    {
      OFFSET -0.187896 24.849884 -0.880430
      CHANNELS 3 Zrotation Xrotation Yrotation
      JOINT Neck
      {
        OFFSET -0.124771 8.219075 -0.653695
        CHANNELS 3 Zrotation Xrotation Yrotation
        JOINT Head
        {
          OFFSET -0.232954 12.978085 6.552464
          CHANNELS 3 Zrotation Xrotation Yrotation
          End Site
          {
            OFFSET 0 0 0
          }
        }
      }
      JOINT ShoulderLeft
      {
        OFFSET -15.112197 -7.801921 -6.170529
        CHANNELS 3 Zrotation Xrotation Yrotation
        JOINT ElbowLeft
        {
          OFFSET -6.063176 -25.208642 2.996421
          CHANNELS 3 Zrotation Xrotation Yrotation
          JOINT WristLeft
          {
            OFFSET 1.755485 -20.646795 8.848100
            CHANNELS 3 Zrotation Xrotation Yrotation
            JOINT HandLeft
            {
              OFFSET -0.285537 -6.781708 2.436122
              CHANNELS 3 Zrotation Xrotation Yrotation
              JOINT HandTipLeft
              {
                OFFSET 1.123999 -3.696320 -1.058318
                CHANNELS 3 Zrotation Xrotation Yrotation
                End Site
                {
                  OFFSET 0 0 0
                }
              }
              JOINT ThumbLeft
              {
                OFFSET 1.264977 -0.739831 0.288312
                CHANNELS 3 Zrotation Xrotation Yrotation
                End Site
                {
                  OFFSET 0 0 0
                }
              }
            }
          }
        }
      }
      JOINT ShoulderRight
      {
        OFFSET 15.395120 -6.315631 -6.331094
        CHANNELS 3 Zrotation Xrotation Yrotation
        JOINT ElbowRight
        {
          OFFSET 7.057492 -26.070547 5.425654
          CHANNELS 3 Zrotation Xrotation Yrotation
          JOINT WristRight
          {
            OFFSET -0.122342 -21.482683 7.199876
            CHANNELS 3 Zrotation Xrotation Yrotation
            JOINT HandRight
            {
              OFFSET -0.431842 0.487281 0.662143
              CHANNELS 3 Zrotation Xrotation Yrotation
              JOINT HandTipRight
              {
                OFFSET 0.449695 -6.825397 0.807346
                CHANNELS 3 Zrotation Xrotation Yrotation
                End Site
                {
                  OFFSET 0 0 0
                }
              }
              JOINT ThumbRight
              {
                OFFSET 0.652941 -1.134344 -0.606803
                CHANNELS 3 Zrotation Xrotation Yrotation
                End Site
                {
                  OFFSET 0 0 0
                }
              }
            }
          }
        }
      }
    }
  }
  JOINT HipLeft
  {
    OFFSET -7.712804 1.187042 -3.398856
    CHANNELS 3 Zrotation Xrotation Yrotation
    JOINT KneeLeft
    {
      OFFSET 0.616200 -30.307972 -2.103098
      CHANNELS 3 Zrotation Xrotation Yrotation
      JOINT AnkleLeft
      {
        OFFSET -0.644791 -31.524084 -1.313889
        CHANNELS 3 Zrotation Xrotation Yrotation
        JOINT FootLeft
        {
          OFFSET -0.283641 -4.665031 -7.035260
          CHANNELS 3 Zrotation Xrotation Yrotation
          End Site
          {
            OFFSET 0 0 0
          }
        }
      }
    }
  }
  JOINT HipRight
  {
    OFFSET 6.571390 1.539580 -3.764757
    CHANNELS 3 Zrotation Xrotation Yrotation
    JOINT KneeRight
    {
      OFFSET 2.398411 -31.495441 -2.970401
      CHANNELS 3 Zrotation Xrotation Yrotation
      JOINT AnkleRight
      {
        OFFSET 1.479203 -31.218933 -0.967401
        CHANNELS 3 Zrotation Xrotation Yrotation
        JOINT FootRight
        {
          OFFSET -0.737136 -2.519455 -12.913740
          CHANNELS 3 Zrotation Xrotation Yrotation
          End Site
          {
            OFFSET 0 0 0
          }
        }
      }
    }
  }
}
MOTION
Frames: 14
Frame Time: 0.033333
41.947282 68.704591 262.033469 0.247213 -0.934331 0.939649 -0.123831 -0.085672 -0.939845 -0.056438 -0.036328 -0.006793 -0.068532 1.058334 0.011257 0.000000 0.000000 0.000000 0.843092 0.208914 0.314175 -0.906898 0.854432 -0.306237 -0.873005 4.031706 -0.458345 -2.354875 -16.077089 -2.897187 0.000000 0.000000 0.000000 0.000000 0.000000 0.000000 -0.068532 1.058334 0.011257 -0.000000 0.000000 0.000000 130.616626 60.686747 -89.798406 -108.817229 -46.071014 -82.001174 0.000000 0.000000 0.000000 0.000000 0.000000 0.000000 -0.231890 0.938252 -0.935735 -0.000000 0.000000 0.000000 -1.402022 22.262134 0.785732 0.000000 0.000000 0.000000 -0.855937 1.482548 -0.822213 0.091978 -2.021801 -0.163314 0.535677 1.488046 0.046925 0.000000 0.000000 0.000000
41.939622 68.703155 262.051433 0.242495 -0.950987 0.916702 -0.121099 -0.075985 -0.917045 -0.054892 -0.034145 -0.006797 -0.067905 1.063028 0.011376 0.000000 0.000000 0.000000 0.865646 0.208048 0.317981 -0.928735 0.860174 -0.309989 -1.588422 4.324077 -0.701906 -0.745585 -18.074332 -3.275053 0.000000 0.000000 0.000000 0.000000 0.000000 0.000000 -0.067905 1.063028 0.011376 0.581236 -0.672338 0.201650 121.693956 52.793799 -83.692545 -115.755457 -50.250227 -78.952675 0.000000 0.000000 0.000000 0.000000 0.000000 0.000000 -0.227282 0.954737 -0.912795 -0.000000 0.000000 0.000000 -1.387250 22.259968 0.766426 0.000000 0.000000 0.000000 -0.227282 0.954737 -0.912795 -0.485957 -1.782761 -0.077032 0.483794 1.783349 0.061941 0.000000 0.000000 0.000000
41.950100 68.701266 262.082767 0.259143 -0.971694 0.871525 -0.123860 -0.063568 -0.871221 -0.056092 -0.029705 -0.006272 -0.080323 1.066824 0.010563 0.000000 0.000000 0.000000 0.859250 0.160404 0.330549 -0.934283 0.911847 -0.322615 -1.715542 4.749142 -0.756004 -0.910713 -19.818748 -3.656941 0.000000 0.000000 0.000000 0.000000 0.000000 0.000000 -0.780504 0.644134 -0.239315 1.486703 -0.535420 0.526031 121.342116 53.058497 -83.681421 -113.864286 -49.872296 -77.739711 0.000000 0.000000 0.000000 0.000000 0.000000 0.000000 -0.244369 0.975513 -0.867248 -0.000000 0.000000 0.000000 -1.373751 22.257137 0.748825 0.000000 0.000000 0.000000 -0.244369 0.975513 -0.867248 -0.535677 -1.972444 -0.086154 0.533027 1.973162 0.067753 0.000000 0.000000 0.000000
41.941394 68.698462 262.110800 0.257502 -0.984782 0.840749 -0.117708 -0.057280 -0.840367 -0.049635 -0.029473 -0.005666 -0.091154 1.073237 0.009904 0.000000 0.000000 0.000000 0.864348 0.148078 0.336180 -0.950014 0.930770 -0.328743 -2.037521 4.777218 -0.860484 0.142863 -18.855825 -3.218263 0.000000 0.000000 0.000000 0.000000 0.000000 0.000000 -0.798143 0.598178 -0.255707 1.867484 0.017750 0.659054 103.465156 41.807285 -71.540493 -105.203518 -55.827898 -56.503019 0.000000 0.000000 0.000000 0.000000 0.000000 0.000000 -0.243062 0.988445 -0.836439 -0.000000 0.000000 0.000000 -1.342905 22.256839 0.708311 0.000000 0.000000 0.000000 -0.243062 0.988445 -0.836439 -0.304740 -1.679637 -0.074657 0.302682 1.680009 0.065752 0.000000 0.000000 0.000000
41.915621 68.695890 262.130560 0.238633 -0.983602 0.820645 -0.105127 -0.051333 -0.820718 -0.041389 -0.025820 -0.005261 -0.093000 1.062237 0.009599 0.000000 0.000000 0.000000 0.887418 0.184197 0.327046 -0.975337 0.883649 -0.320591 -2.217685 4.150812 -0.902193 1.025090 -17.366859 -2.931566 0.000000 0.000000 0.000000 0.000000 0.000000 0.000000 -0.793238 0.540522 -0.267741 2.294875 0.529768 0.804589 90.784988 40.421322 -62.481047 -89.422952 -56.567439 -40.395935 0.000000 0.000000 0.000000 0.000000 0.000000 0.000000 -0.224555 0.986911 -0.816662 -0.000000 0.000000 0.000000 -1.336440 22.259543 0.699690 0.000000 0.000000 0.000000 -0.224555 0.986911 -0.816662 -0.097039 -1.235366 -0.056596 0.095842 1.235459 0.054517 0.000000 0.000000 0.000000
41.879088 68.695218 262.145265 0.207799 -0.982042 0.826722 -0.087626 -0.052022 -0.827683 -0.031186 -0.023621 -0.005090 -0.089891 1.058928 0.009764 0.000000 0.000000 0.000000 0.900578 0.196256 0.324534 -0.985510 0.868297 -0.318152 -3.087273 2.311453 -1.151313 2.853352 -14.691802 -2.526473 0.000000 0.000000 0.000000 0.000000 0.000000 0.000000 -0.784591 0.524853 -0.269954 2.719192 1.139432 0.934606 88.255303 45.397889 -59.322495 -84.250733 -53.639011 -41.011635 0.000000 0.000000 0.000000 0.000000 0.000000 0.000000 -0.193638 0.984932 -0.823277 -0.000000 0.000000 0.000000 -1.329537 22.261418 0.690534 0.000000 0.000000 0.000000 -0.193638 0.984932 -0.823277 0.010040 -1.028579 -0.048971 -0.010921 1.028570 0.049160 0.000000 0.000000 0.000000
41.838047 68.695187 262.155185 0.172865 -0.971285 0.844047 -0.071470 -0.042078 -0.845998 -0.022175 -0.016485 -0.005032 -0.079999 1.030882 0.010014 0.000000 0.000000 0.000000 0.915181 0.197455 0.318498 -0.990476 0.838975 -0.311900 -0.693552 1.692897 -0.311751 0.283778 -11.489722 -2.642807 0.000000 0.000000 0.000000 0.000000 0.000000 0.000000 -0.826362 0.430197 -0.298595 3.440815 1.069985 1.178487 82.230559 40.695236 -56.435968 -76.975978 -52.911518 -30.267015 0.000000 0.000000 0.000000 0.000000 0.000000 0.000000 -0.158562 0.973722 -0.841234 -0.000000 0.000000 0.000000 -1.357023 22.264942 0.726481 0.000000 0.000000 0.000000 -0.158562 0.973722 -0.841234 -0.093363 -1.207685 -0.055335 0.110505 3.016265 -0.531484 0.000000 0.000000 0.000000
41.793205 68.698019 262.162280 0.133563 -0.955168 0.861942 -0.056136 -0.023527 -0.864997 -0.015973 -0.003708 -0.005216 -0.061975 0.983232 0.010536 0.000000 0.000000 0.000000 0.944403 0.213774 0.305133 -1.002209 0.774839 -0.298332 -0.172727 2.786331 -0.176718 -2.754065 -13.578908 -2.780206 0.000000 0.000000 0.000000 0.000000 0.000000 0.000000 -1.005422 0.173624 -0.395744 3.799388 1.500658 1.310033 84.440847 42.495573 -57.634259 -80.405307 -52.451983 -35.095880 0.000000 0.000000 0.000000 0.000000 0.000000 0.000000 -0.119196 0.957067 -0.859833 -0.000000 0.000000 0.000000 -1.430484 22.269278 0.822787 0.000000 0.000000 0.000000 -0.119196 0.957067 -0.859833 -0.178225 -1.315580 -0.058886 0.036044 0.645649 1.006665 0.000000 0.000000 0.000000
41.747585 68.700532 262.162157 0.093408 -0.934839 0.906447 -0.040480 -0.003328 -0.910573 -0.013533 0.013146 -0.005582 -0.039622 0.925652 0.011228 0.000000 0.000000 0.000000 0.969306 0.163056 0.305410 -1.004806 0.767988 -0.297033 -0.215711 5.457516 -0.302315 -5.588710 -19.890540 -3.919298 0.000000 0.000000 0.000000 0.000000 0.000000 0.000000 -1.025240 0.080040 -0.414481 3.699712 1.656622 1.278729 86.976230 43.783818 -59.085355 -83.795293 -50.774097 -39.384682 0.000000 0.000000 0.000000 0.000000 0.000000 0.000000 -0.078618 0.936198 -0.905043 -0.000000 0.000000 0.000000 -1.477683 22.275755 0.884483 0.000000 0.000000 0.000000 -0.078618 0.936198 -0.905043 -0.286859 -1.150743 -0.048538 0.060842 -1.852057 2.400980 0.000000 0.000000 0.000000
41.709124 68.703349 262.156928 0.056947 -0.912261 1.008410 -0.030189 0.016834 -1.013554 -0.016158 0.031121 -0.006343 -0.010491 0.864836 0.012381 0.000000 0.000000 0.000000 0.960120 0.001568 0.328442 -0.496740 0.093503 -0.183370 -1.467578 10.997857 -0.851173 -9.040998 -29.696557 -6.198951 0.000000 0.000000 0.000000 0.000000 0.000000 0.000000 -1.023927 0.078110 -0.403545 3.278831 1.643487 1.129154 91.279158 46.447780 -61.452473 -89.377308 -50.935040 -46.883574 0.000000 0.000000 0.000000 0.000000 0.000000 0.000000 -0.040889 0.913121 -1.007631 -0.000000 0.000000 0.000000 -1.551612 22.281276 0.981329 0.000000 0.000000 0.000000 -0.040889 0.913121 -1.007631 -0.388846 -1.157115 -0.046727 0.127323 -3.761423 3.609759 0.000000 0.000000 0.000000
41.682822 68.704799 262.144860 0.031463 -0.885252 1.166293 -0.027689 0.044870 -1.172086 -0.002955 0.840954 0.006277 -0.000000 0.000000 0.000000 0.000000 0.000000 0.000000 0.918676 -1.041461 0.368360 1.096802 -0.705772 0.354361 -7.239181 20.666546 -2.507277 -9.936253 -43.463750 -8.798027 0.000000 0.000000 0.000000 0.000000 0.000000 0.000000 -0.975654 -0.551683 -0.357560 2.483778 1.564064 0.824478 101.464726 55.582783 -67.163807 -94.070952 -47.929606 -60.509077 0.000000 0.000000 0.000000 0.000000 0.000000 0.000000 -0.013440 0.885709 -1.165946 -0.000000 0.000000 0.000000 -1.668981 22.287847 1.135165 0.000000 0.000000 0.000000 -0.013440 0.885709 -1.165946 -0.424801 -1.206577 -0.048505 0.146343 -4.975090 4.522428 0.000000 0.000000 0.000000
41.674321 68.705054 262.141176 0.023266 -0.862789 1.321757 -0.003359 0.863096 -1.321556 -0.000000 0.000000 0.000000 -0.000000 0.000000 0.000000 0.000000 0.000000 0.000000 0.864895 -1.333174 0.433725 2.027983 -0.677342 0.631993 -11.790502 28.924775 -3.240978 -8.076293 -54.901460 -10.770699 0.000000 0.000000 0.000000 0.000000 0.000000 0.000000 -0.956105 -0.363347 -0.300857 0.954204 0.368312 0.294758 133.876812 64.805108 -92.500078 -100.541488 -41.941486 -80.220087 0.000000 0.000000 0.000000 0.000000 0.000000 0.000000 -0.003359 0.863096 -1.321556 -0.767606 0.317072 0.027625 -1.009650 21.975433 1.258923 0.000000 0.000000 0.000000 -0.003359 0.863096 -1.321556 -0.385707 -1.302030 -0.054153 0.088409 -5.317506 4.976095 0.000000 0.000000 0.000000
41.672749 68.701250 262.139103 0.017698 -0.839530 1.466099 0.003788 0.839708 -1.465997 -0.000000 0.000000 0.000000 -0.000000 0.000000 0.000000 0.000000 0.000000 0.000000 0.794491 -1.592301 0.488488 2.883059 -0.750995 0.872971 -14.928041 31.190937 -3.597610 -6.325363 -57.055024 -10.059170 0.000000 0.000000 0.000000 0.000000 0.000000 0.000000 -1.011164 -0.200262 -0.266963 1.010227 0.204940 0.263389 147.970147 70.265813 -104.907276 -96.084095 -41.004899 -84.315318 0.000000 0.000000 0.000000 0.000000 0.000000 0.000000 0.003788 0.839708 -1.465997 -0.755907 0.298269 0.027366 -1.231265 21.995309 1.534218 0.000000 0.000000 0.000000 0.003788 0.839708 -1.465997 -0.359077 -1.030392 -0.040942 0.009704 -5.170019 5.024019 0.000000 0.000000 0.000000
41.658772 68.697885 262.129098 0.001464 -0.806780 1.664215 0.021968 0.806482 -1.664360 -0.000000 0.000000 0.000000 -0.717783 -0.138895 0.359300 0.000000 0.000000 0.000000 0.762996 -1.819394 0.540288 3.384445 -0.993716 0.979017 -15.352947 34.274444 -3.507497 -9.038954 -59.079999 -11.843678 0.000000 0.000000 0.000000 0.000000 0.000000 0.000000 -0.963418 0.124638 -0.166133 0.709517 1.532424 0.077885 152.968227 79.190246 -109.689104 -90.833850 -43.453895 -85.515984 0.000000 0.000000 0.000000 0.000000 0.000000 0.000000 0.021968 0.806482 -1.664360 -0.851941 0.443316 0.029728 -1.394346 21.849487 1.870636 0.000000 0.000000 0.000000 0.021968 0.806482 -1.664360 -0.000000 0.000000 0.000000 -0.425248 -4.935424 4.619733 0.000000 0.000000 0.000000
